<mxfile host="65bd71144e">
    <diagram id="XAmNBGXt0AHOLajKv8Me" name="第 1 页">
        <mxGraphModel dx="2014" dy="1142" grid="1" gridSize="10" guides="1" tooltips="1" connect="1" arrows="1" fold="1" page="1" pageScale="1" pageWidth="3300" pageHeight="4681" math="0" shadow="0">
            <root>
                <mxCell id="0"/>
                <mxCell id="1" parent="0"/>
                <mxCell id="206" value="" style="rounded=0;whiteSpace=wrap;html=1;strokeWidth=1;" parent="1" vertex="1">
                    <mxGeometry x="10" y="10" width="2580" height="1780" as="geometry"/>
                </mxCell>
                <mxCell id="271" value="" style="rounded=0;whiteSpace=wrap;html=1;" parent="1" vertex="1">
                    <mxGeometry x="1236.35" y="160" width="903.65" height="220" as="geometry"/>
                </mxCell>
                <mxCell id="19" style="edgeStyle=none;html=1;exitX=0.5;exitY=0;exitDx=0;exitDy=0;" parent="1" source="17" target="14" edge="1">
                    <mxGeometry relative="1" as="geometry"/>
                </mxCell>
                <mxCell id="17" value="" style="rounded=0;whiteSpace=wrap;html=1;" parent="1" vertex="1">
                    <mxGeometry x="180" y="220" width="370" height="100" as="geometry"/>
                </mxCell>
                <mxCell id="5" value="" style="group" parent="1" vertex="1" connectable="0">
                    <mxGeometry x="190" y="240" width="340" height="30" as="geometry"/>
                </mxCell>
                <mxCell id="2" value="categorical" style="rounded=0;whiteSpace=wrap;html=1;fillColor=#dae8fc;strokeColor=#6c8ebf;" parent="5" vertex="1">
                    <mxGeometry x="80" width="110" height="30" as="geometry"/>
                </mxCell>
                <mxCell id="3" value="numerical" style="rounded=0;whiteSpace=wrap;html=1;fillColor=#BCC8D9;strokeColor=#6c8ebf;" parent="5" vertex="1">
                    <mxGeometry x="190" width="150" height="30" as="geometry"/>
                </mxCell>
                <mxCell id="4" value="subject_user" style="text;html=1;strokeColor=none;fillColor=none;align=center;verticalAlign=middle;whiteSpace=wrap;rounded=0;" parent="5" vertex="1">
                    <mxGeometry y="5" width="70" height="20" as="geometry"/>
                </mxCell>
                <mxCell id="6" value="" style="group" parent="1" vertex="1" connectable="0">
                    <mxGeometry x="190" y="280" width="340" height="30" as="geometry"/>
                </mxCell>
                <mxCell id="7" value="categorical" style="rounded=0;whiteSpace=wrap;html=1;fillColor=#d5e8d4;strokeColor=#82b366;" parent="6" vertex="1">
                    <mxGeometry x="80" width="110" height="30" as="geometry"/>
                </mxCell>
                <mxCell id="8" value="numerical" style="rounded=0;whiteSpace=wrap;html=1;fillColor=#C5D6C4;strokeColor=#82b366;" parent="6" vertex="1">
                    <mxGeometry x="190" width="150" height="30" as="geometry"/>
                </mxCell>
                <mxCell id="9" value="object_user" style="text;html=1;strokeColor=none;fillColor=none;align=center;verticalAlign=middle;whiteSpace=wrap;rounded=0;" parent="6" vertex="1">
                    <mxGeometry y="5" width="70" height="20" as="geometry"/>
                </mxCell>
                <mxCell id="13" value="" style="group" parent="1" vertex="1" connectable="0">
                    <mxGeometry x="270" y="60" width="130" height="30" as="geometry"/>
                </mxCell>
                <mxCell id="12" value="Prediction" style="text;html=1;strokeColor=none;fillColor=none;align=center;verticalAlign=middle;whiteSpace=wrap;rounded=0;" parent="13" vertex="1">
                    <mxGeometry x="10" y="-5" width="60" height="30" as="geometry"/>
                </mxCell>
                <mxCell id="61" value="dec" style="ellipse;whiteSpace=wrap;html=1;aspect=fixed;fillColor=#f8cecc;strokeColor=#b85450;" parent="13" vertex="1">
                    <mxGeometry x="75" y="-10" width="40" height="40" as="geometry"/>
                </mxCell>
                <mxCell id="16" style="edgeStyle=none;html=1;exitX=0.5;exitY=0;exitDx=0;exitDy=0;entryX=0.5;entryY=1;entryDx=0;entryDy=0;" parent="1" source="14" edge="1">
                    <mxGeometry relative="1" as="geometry">
                        <mxPoint x="365" y="90" as="targetPoint"/>
                    </mxGeometry>
                </mxCell>
                <mxCell id="14" value="Model" style="rounded=0;whiteSpace=wrap;html=1;" parent="1" vertex="1">
                    <mxGeometry x="305" y="130" width="120" height="60" as="geometry"/>
                </mxCell>
                <mxCell id="18" value="Input" style="text;html=1;strokeColor=none;fillColor=none;align=center;verticalAlign=middle;whiteSpace=wrap;rounded=0;" parent="1" vertex="1">
                    <mxGeometry x="110" y="260" width="60" height="30" as="geometry"/>
                </mxCell>
                <mxCell id="63" style="edgeStyle=none;html=1;exitX=0.5;exitY=0;exitDx=0;exitDy=0;entryX=0.5;entryY=1;entryDx=0;entryDy=0;endArrow=classic;endFill=1;" parent="1" source="20" edge="1">
                    <mxGeometry relative="1" as="geometry">
                        <mxPoint x="472.4100000000001" y="410" as="targetPoint"/>
                    </mxGeometry>
                </mxCell>
                <mxCell id="20" value="Logistic Regression / XGBoost" style="rounded=0;whiteSpace=wrap;html=1;" parent="1" vertex="1">
                    <mxGeometry x="412.41" y="440" width="120" height="60" as="geometry"/>
                </mxCell>
                <mxCell id="29" value="" style="group" parent="1" vertex="1" connectable="0">
                    <mxGeometry x="529.4135294117648" y="710" width="191.1764705882353" height="30" as="geometry"/>
                </mxCell>
                <mxCell id="26" value="categorical" style="rounded=0;whiteSpace=wrap;html=1;fillColor=#d5e8d4;strokeColor=#82b366;" parent="29" vertex="1">
                    <mxGeometry width="80.88235294117646" height="30" as="geometry"/>
                </mxCell>
                <mxCell id="27" value="numerical" style="rounded=0;whiteSpace=wrap;html=1;fillColor=#C5D6C4;strokeColor=#82b366;" parent="29" vertex="1">
                    <mxGeometry x="80.88235294117646" width="110.29411764705881" height="30" as="geometry"/>
                </mxCell>
                <mxCell id="30" value="" style="group" parent="1" vertex="1" connectable="0">
                    <mxGeometry x="229.4135294117647" y="710" width="191.1764705882353" height="30" as="geometry"/>
                </mxCell>
                <mxCell id="22" value="categorical" style="rounded=0;whiteSpace=wrap;html=1;fillColor=#dae8fc;strokeColor=#6c8ebf;" parent="30" vertex="1">
                    <mxGeometry width="80.88235294117646" height="30" as="geometry"/>
                </mxCell>
                <mxCell id="23" value="numerical" style="rounded=0;whiteSpace=wrap;html=1;fillColor=#BCC8D9;strokeColor=#6c8ebf;" parent="30" vertex="1">
                    <mxGeometry x="80.88235294117649" width="110.29411764705881" height="30" as="geometry"/>
                </mxCell>
                <mxCell id="31" value="" style="group" parent="1" vertex="1" connectable="0">
                    <mxGeometry x="249.4135294117647" y="640" width="191.1764705882353" height="30" as="geometry"/>
                </mxCell>
                <mxCell id="32" value="onehot_encoded" style="rounded=0;whiteSpace=wrap;html=1;fillColor=#dae8fc;strokeColor=#6c8ebf;" parent="31" vertex="1">
                    <mxGeometry x="-40" width="120.88" height="30" as="geometry"/>
                </mxCell>
                <mxCell id="33" value="numerical" style="rounded=0;whiteSpace=wrap;html=1;fillColor=#BCC8D9;strokeColor=#6c8ebf;" parent="31" vertex="1">
                    <mxGeometry x="80.88235294117649" width="110.29411764705881" height="30" as="geometry"/>
                </mxCell>
                <mxCell id="34" style="edgeStyle=none;html=1;exitX=0.5;exitY=0;exitDx=0;exitDy=0;entryX=0.5;entryY=1;entryDx=0;entryDy=0;" parent="1" source="22" target="32" edge="1">
                    <mxGeometry relative="1" as="geometry">
                        <mxPoint x="269.40999999999997" y="670" as="targetPoint"/>
                    </mxGeometry>
                </mxCell>
                <mxCell id="35" value="" style="group" parent="1" vertex="1" connectable="0">
                    <mxGeometry x="549.4135294117648" y="640" width="191.1764705882353" height="30" as="geometry"/>
                </mxCell>
                <mxCell id="36" value="onehot_encoded" style="rounded=0;whiteSpace=wrap;html=1;fillColor=#d5e8d4;strokeColor=#82b366;" parent="35" vertex="1">
                    <mxGeometry x="-40" width="120.88" height="30" as="geometry"/>
                </mxCell>
                <mxCell id="37" value="numerical" style="rounded=0;whiteSpace=wrap;html=1;fillColor=#C5D6C4;strokeColor=#82b366;" parent="35" vertex="1">
                    <mxGeometry x="80.88235294117649" width="110.29411764705881" height="30" as="geometry"/>
                </mxCell>
                <mxCell id="38" style="edgeStyle=none;html=1;exitX=0.5;exitY=0;exitDx=0;exitDy=0;" parent="1" source="26" target="36" edge="1">
                    <mxGeometry relative="1" as="geometry"/>
                </mxCell>
                <mxCell id="55" style="edgeStyle=none;html=1;exitX=0.5;exitY=0;exitDx=0;exitDy=0;exitPerimeter=0;entryX=0.5;entryY=1;entryDx=0;entryDy=0;endArrow=classic;endFill=1;" parent="1" source="39" target="54" edge="1">
                    <mxGeometry relative="1" as="geometry"/>
                </mxCell>
                <mxCell id="39" value="" style="pointerEvents=1;verticalLabelPosition=bottom;shadow=0;dashed=0;align=center;html=1;verticalAlign=top;shape=mxgraph.electrical.signal_sources.source;aspect=fixed;points=[[0.5,0,0],[1,0.5,0],[0.5,1,0],[0,0.5,0]];elSignalType=ideal;" parent="1" vertex="1">
                    <mxGeometry x="463.41" y="615" width="18" height="18" as="geometry"/>
                </mxCell>
                <mxCell id="47" style="edgeStyle=none;html=1;endArrow=classic;endFill=1;" parent="1" edge="1">
                    <mxGeometry relative="1" as="geometry">
                        <mxPoint x="509.41" y="655" as="sourcePoint"/>
                        <mxPoint x="479.41" y="630" as="targetPoint"/>
                    </mxGeometry>
                </mxCell>
                <mxCell id="48" style="edgeStyle=none;html=1;endArrow=classic;endFill=1;exitX=1;exitY=0.5;exitDx=0;exitDy=0;" parent="1" source="33" edge="1">
                    <mxGeometry relative="1" as="geometry">
                        <mxPoint x="464.41" y="629" as="targetPoint"/>
                        <mxPoint x="446.41" y="655" as="sourcePoint"/>
                    </mxGeometry>
                </mxCell>
                <mxCell id="56" style="edgeStyle=none;html=1;exitX=0.5;exitY=0;exitDx=0;exitDy=0;entryX=0.5;entryY=1;entryDx=0;entryDy=0;endArrow=classic;endFill=1;" parent="1" source="54" target="20" edge="1">
                    <mxGeometry relative="1" as="geometry"/>
                </mxCell>
                <mxCell id="54" value="Input" style="rounded=0;whiteSpace=wrap;html=1;fillColor=#ffe6cc;strokeColor=#d79b00;" parent="1" vertex="1">
                    <mxGeometry x="386.97" y="540" width="170.88" height="30" as="geometry"/>
                </mxCell>
                <mxCell id="64" value="substract" style="text;html=1;strokeColor=none;fillColor=none;align=center;verticalAlign=middle;whiteSpace=wrap;rounded=0;" parent="1" vertex="1">
                    <mxGeometry x="403.41" y="600" width="60" height="30" as="geometry"/>
                </mxCell>
                <mxCell id="65" value="" style="group" parent="1" vertex="1" connectable="0">
                    <mxGeometry x="290.05352941176466" y="1078" width="191.1764705882353" height="30" as="geometry"/>
                </mxCell>
                <mxCell id="66" value="categorical" style="rounded=0;whiteSpace=wrap;html=1;fillColor=#dae8fc;strokeColor=#6c8ebf;" parent="65" vertex="1">
                    <mxGeometry width="80.88235294117646" height="30" as="geometry"/>
                </mxCell>
                <mxCell id="67" value="numerical" style="rounded=0;whiteSpace=wrap;html=1;fillColor=#BCC8D9;strokeColor=#6c8ebf;" parent="65" vertex="1">
                    <mxGeometry x="80.88235294117649" width="110.29411764705881" height="30" as="geometry"/>
                </mxCell>
                <mxCell id="69" value="" style="group" parent="1" vertex="1" connectable="0">
                    <mxGeometry x="481.2335294117647" y="1078" width="191.1764705882353" height="30" as="geometry"/>
                </mxCell>
                <mxCell id="70" value="categorical" style="rounded=0;whiteSpace=wrap;html=1;fillColor=#d5e8d4;strokeColor=#82b366;" parent="69" vertex="1">
                    <mxGeometry width="80.88235294117646" height="30" as="geometry"/>
                </mxCell>
                <mxCell id="71" value="numerical" style="rounded=0;whiteSpace=wrap;html=1;fillColor=#C5D6C4;strokeColor=#82b366;" parent="69" vertex="1">
                    <mxGeometry x="80.88235294117646" width="110.29411764705881" height="30" as="geometry"/>
                </mxCell>
                <mxCell id="74" value="问题定义" style="text;html=1;strokeColor=none;fillColor=none;align=center;verticalAlign=middle;whiteSpace=wrap;rounded=0;" parent="1" vertex="1">
                    <mxGeometry x="10" y="30" width="60" height="30" as="geometry"/>
                </mxCell>
                <mxCell id="75" value="传统模型" style="text;html=1;strokeColor=none;fillColor=none;align=center;verticalAlign=middle;whiteSpace=wrap;rounded=0;" parent="1" vertex="1">
                    <mxGeometry x="20" y="390" width="60" height="30" as="geometry"/>
                </mxCell>
                <mxCell id="76" value="DNN" style="text;html=1;strokeColor=none;fillColor=none;align=center;verticalAlign=middle;whiteSpace=wrap;rounded=0;" parent="1" vertex="1">
                    <mxGeometry x="90" y="865" width="60" height="30" as="geometry"/>
                </mxCell>
                <mxCell id="87" style="edgeStyle=none;html=1;exitX=0.5;exitY=0;exitDx=0;exitDy=0;entryX=0.5;entryY=1;entryDx=0;entryDy=0;entryPerimeter=0;" parent="1" source="84" target="86" edge="1">
                    <mxGeometry relative="1" as="geometry"/>
                </mxCell>
                <mxCell id="84" value="DNN" style="shape=trapezoid;perimeter=trapezoidPerimeter;whiteSpace=wrap;html=1;fixedSize=1;size=98.18000000000006;" parent="1" vertex="1">
                    <mxGeometry x="351.82" y="945" width="260" height="100" as="geometry"/>
                </mxCell>
                <mxCell id="85" style="edgeStyle=none;html=1;exitX=0;exitY=0;exitDx=0;exitDy=0;entryX=0.5;entryY=1;entryDx=0;entryDy=0;" parent="1" source="70" target="84" edge="1">
                    <mxGeometry relative="1" as="geometry"/>
                </mxCell>
                <mxCell id="88" style="edgeStyle=none;html=1;exitX=0.5;exitY=0;exitDx=0;exitDy=0;exitPerimeter=0;" parent="1" source="86" edge="1">
                    <mxGeometry relative="1" as="geometry">
                        <mxPoint x="481.81999999999994" y="878" as="targetPoint"/>
                    </mxGeometry>
                </mxCell>
                <mxCell id="86" value="" style="pointerEvents=1;verticalLabelPosition=bottom;shadow=0;dashed=0;align=center;html=1;verticalAlign=top;shape=mxgraph.electrical.signal_sources.source;aspect=fixed;points=[[0.5,0,0],[1,0.5,0],[0.5,1,0],[0,0.5,0]];elSignalType=ac;" parent="1" vertex="1">
                    <mxGeometry x="466.81999999999994" y="898" width="30" height="30" as="geometry"/>
                </mxCell>
                <mxCell id="91" value="&lt;span&gt;dec_probs&lt;/span&gt;" style="strokeWidth=1;html=1;shape=mxgraph.flowchart.terminator;whiteSpace=wrap;fillColor=#f8cecc;strokeColor=#b85450;" parent="1" vertex="1">
                    <mxGeometry x="443.02" y="838" width="77.59" height="40" as="geometry"/>
                </mxCell>
                <mxCell id="92" value="&lt;span&gt;dec_probs&lt;/span&gt;" style="strokeWidth=1;html=1;shape=mxgraph.flowchart.terminator;whiteSpace=wrap;fillColor=#f8cecc;strokeColor=#b85450;" parent="1" vertex="1">
                    <mxGeometry x="433.61" y="370" width="77.59" height="40" as="geometry"/>
                </mxCell>
                <mxCell id="93" value="Sigmoid" style="text;html=1;strokeColor=none;fillColor=none;align=center;verticalAlign=middle;whiteSpace=wrap;rounded=0;" parent="1" vertex="1">
                    <mxGeometry x="510.23" y="898" width="60" height="30" as="geometry"/>
                </mxCell>
                <mxCell id="94" value="Embedding + DNN" style="text;html=1;strokeColor=none;fillColor=none;align=center;verticalAlign=middle;whiteSpace=wrap;rounded=0;" parent="1" vertex="1">
                    <mxGeometry x="70" y="1230" width="150.59" height="40" as="geometry"/>
                </mxCell>
                <mxCell id="108" value="" style="group" parent="1" vertex="1" connectable="0">
                    <mxGeometry x="470.5935294117647" y="1620" width="293.0564705882353" height="30" as="geometry"/>
                </mxCell>
                <mxCell id="112" value="" style="group" parent="108" vertex="1" connectable="0">
                    <mxGeometry x="101.88" width="191.1764705882353" height="30" as="geometry"/>
                </mxCell>
                <mxCell id="113" value="categorical" style="rounded=0;whiteSpace=wrap;html=1;fillColor=#d5e8d4;strokeColor=#82b366;" parent="112" vertex="1">
                    <mxGeometry width="80.88235294117646" height="30" as="geometry"/>
                </mxCell>
                <mxCell id="115" value="Embedding Layer" style="rounded=0;whiteSpace=wrap;html=1;strokeWidth=1;" parent="1" vertex="1">
                    <mxGeometry x="324.40999999999997" y="1550" width="370" height="40" as="geometry"/>
                </mxCell>
                <mxCell id="120" value="" style="group" parent="1" vertex="1" connectable="0">
                    <mxGeometry x="332.40999999999997" y="1490" width="311.18" height="30" as="geometry"/>
                </mxCell>
                <mxCell id="121" value="categorical_embedding" style="rounded=0;whiteSpace=wrap;html=1;fillColor=#dae8fc;strokeColor=#6c8ebf;" parent="120" vertex="1">
                    <mxGeometry width="131.6530769230769" height="30" as="geometry"/>
                </mxCell>
                <mxCell id="122" value="numerical" style="rounded=0;whiteSpace=wrap;html=1;fillColor=#BCC8D9;strokeColor=#6c8ebf;" parent="120" vertex="1">
                    <mxGeometry x="131.65" width="78.35" height="30" as="geometry"/>
                </mxCell>
                <mxCell id="123" value="categorical_embedding" style="rounded=0;whiteSpace=wrap;html=1;fillColor=#d5e8d4;strokeColor=#82b366;" parent="1" vertex="1">
                    <mxGeometry x="542.41" y="1490" width="131.6530769230769" height="30" as="geometry"/>
                </mxCell>
                <mxCell id="124" value="numerical" style="rounded=0;whiteSpace=wrap;html=1;fillColor=#C5D6C4;strokeColor=#82b366;" parent="1" vertex="1">
                    <mxGeometry x="674.0600000000001" y="1490" width="78.35" height="30" as="geometry"/>
                </mxCell>
                <mxCell id="128" style="edgeStyle=none;html=1;exitX=0.5;exitY=0;exitDx=0;exitDy=0;entryX=0.5;entryY=1;entryDx=0;entryDy=0;entryPerimeter=0;" parent="1" source="129" target="131" edge="1">
                    <mxGeometry relative="1" as="geometry"/>
                </mxCell>
                <mxCell id="129" value="DNN" style="shape=trapezoid;perimeter=trapezoidPerimeter;whiteSpace=wrap;html=1;fixedSize=1;size=97.58999999999992;" parent="1" vertex="1">
                    <mxGeometry x="412.41" y="1357" width="260" height="100" as="geometry"/>
                </mxCell>
                <mxCell id="130" style="edgeStyle=none;html=1;exitX=0.5;exitY=0;exitDx=0;exitDy=0;exitPerimeter=0;" parent="1" source="131" edge="1">
                    <mxGeometry relative="1" as="geometry">
                        <mxPoint x="542.4100000000001" y="1290" as="targetPoint"/>
                    </mxGeometry>
                </mxCell>
                <mxCell id="131" value="" style="pointerEvents=1;verticalLabelPosition=bottom;shadow=0;dashed=0;align=center;html=1;verticalAlign=top;shape=mxgraph.electrical.signal_sources.source;aspect=fixed;points=[[0.5,0,0],[1,0.5,0],[0.5,1,0],[0,0.5,0]];elSignalType=ac;" parent="1" vertex="1">
                    <mxGeometry x="527.4100000000001" y="1310" width="30" height="30" as="geometry"/>
                </mxCell>
                <mxCell id="132" value="&lt;span&gt;dec_probs&lt;/span&gt;" style="strokeWidth=1;html=1;shape=mxgraph.flowchart.terminator;whiteSpace=wrap;fillColor=#f8cecc;strokeColor=#b85450;" parent="1" vertex="1">
                    <mxGeometry x="503.61000000000007" y="1250" width="77.59" height="40" as="geometry"/>
                </mxCell>
                <mxCell id="133" value="Sigmoid" style="text;html=1;strokeColor=none;fillColor=none;align=center;verticalAlign=middle;whiteSpace=wrap;rounded=0;" parent="1" vertex="1">
                    <mxGeometry x="570.8199999999999" y="1310" width="60" height="30" as="geometry"/>
                </mxCell>
                <mxCell id="134" style="edgeStyle=none;html=1;exitX=1;exitY=0;exitDx=0;exitDy=0;entryX=0.5;entryY=1;entryDx=0;entryDy=0;" parent="1" source="122" target="129" edge="1">
                    <mxGeometry relative="1" as="geometry"/>
                </mxCell>
                <mxCell id="136" style="edgeStyle=none;html=1;exitX=0.5;exitY=0;exitDx=0;exitDy=0;entryX=0.205;entryY=1.017;entryDx=0;entryDy=0;entryPerimeter=0;" parent="1" source="109" target="115" edge="1">
                    <mxGeometry relative="1" as="geometry"/>
                </mxCell>
                <mxCell id="109" value="categorical" style="rounded=0;whiteSpace=wrap;html=1;fillColor=#dae8fc;strokeColor=#6c8ebf;" parent="1" vertex="1">
                    <mxGeometry x="360.0035294117647" y="1620" width="80.88235294117646" height="30" as="geometry"/>
                </mxCell>
                <mxCell id="138" style="edgeStyle=none;html=1;exitX=0.5;exitY=0;exitDx=0;exitDy=0;entryX=0.205;entryY=1.017;entryDx=0;entryDy=0;entryPerimeter=0;" parent="1" edge="1">
                    <mxGeometry relative="1" as="geometry">
                        <mxPoint x="400.124705882353" y="1549.32" as="sourcePoint"/>
                        <mxPoint x="399.94" y="1519.9999999999998" as="targetPoint"/>
                    </mxGeometry>
                </mxCell>
                <mxCell id="139" style="edgeStyle=none;html=1;exitX=0.5;exitY=0;exitDx=0;exitDy=0;entryX=0.205;entryY=1.017;entryDx=0;entryDy=0;entryPerimeter=0;" parent="1" edge="1">
                    <mxGeometry relative="1" as="geometry">
                        <mxPoint x="608.034705882353" y="1619.32" as="sourcePoint"/>
                        <mxPoint x="607.85" y="1589.9999999999998" as="targetPoint"/>
                    </mxGeometry>
                </mxCell>
                <mxCell id="141" style="edgeStyle=none;html=1;exitX=0.5;exitY=0;exitDx=0;exitDy=0;entryX=0.205;entryY=1.017;entryDx=0;entryDy=0;entryPerimeter=0;" parent="1" edge="1">
                    <mxGeometry relative="1" as="geometry">
                        <mxPoint x="608.034705882353" y="1550" as="sourcePoint"/>
                        <mxPoint x="607.85" y="1520.6799999999998" as="targetPoint"/>
                    </mxGeometry>
                </mxCell>
                <mxCell id="142" value="Embedding + Fork DNN" style="text;html=1;strokeColor=none;fillColor=none;align=center;verticalAlign=middle;whiteSpace=wrap;rounded=0;" parent="1" vertex="1">
                    <mxGeometry x="800" y="675.5" width="150.59" height="40" as="geometry"/>
                </mxCell>
                <mxCell id="143" value="" style="group" parent="1" vertex="1" connectable="0">
                    <mxGeometry x="1220.5635294117649" y="1291.5" width="293.0564705882353" height="30" as="geometry"/>
                </mxCell>
                <mxCell id="170" style="edgeStyle=none;html=1;exitX=0.5;exitY=0;exitDx=0;exitDy=0;entryX=0.205;entryY=1.017;entryDx=0;entryDy=0;entryPerimeter=0;" parent="143" edge="1">
                    <mxGeometry relative="1" as="geometry">
                        <mxPoint x="58.63117647058823" y="29.31999999999971" as="sourcePoint"/>
                        <mxPoint x="58.44647058823546" as="targetPoint"/>
                    </mxGeometry>
                </mxCell>
                <mxCell id="152" style="edgeStyle=none;html=1;exitX=0.5;exitY=0;exitDx=0;exitDy=0;entryX=0.5;entryY=1;entryDx=0;entryDy=0;entryPerimeter=0;exitPerimeter=0;" parent="1" source="203" target="155" edge="1">
                    <mxGeometry relative="1" as="geometry">
                        <mxPoint x="1296.36" y="722.5" as="sourcePoint"/>
                    </mxGeometry>
                </mxCell>
                <mxCell id="153" value="DNN" style="shape=trapezoid;perimeter=trapezoidPerimeter;whiteSpace=wrap;html=1;fixedSize=1;size=30;" parent="1" vertex="1">
                    <mxGeometry x="1161.56" y="1055.5" width="268" height="57" as="geometry"/>
                </mxCell>
                <mxCell id="154" style="edgeStyle=none;html=1;exitX=0.5;exitY=0;exitDx=0;exitDy=0;exitPerimeter=0;" parent="1" source="155" edge="1">
                    <mxGeometry relative="1" as="geometry">
                        <mxPoint x="1296.3600000000001" y="655.5" as="targetPoint"/>
                    </mxGeometry>
                </mxCell>
                <mxCell id="155" value="" style="pointerEvents=1;verticalLabelPosition=bottom;shadow=0;dashed=0;align=center;html=1;verticalAlign=top;shape=mxgraph.electrical.signal_sources.source;aspect=fixed;points=[[0.5,0,0],[1,0.5,0],[0.5,1,0],[0,0.5,0]];elSignalType=ac;" parent="1" vertex="1">
                    <mxGeometry x="1281.36" y="675.5" width="30" height="30" as="geometry"/>
                </mxCell>
                <mxCell id="156" value="&lt;span&gt;dec_probs&lt;/span&gt;" style="strokeWidth=1;html=1;shape=mxgraph.flowchart.terminator;whiteSpace=wrap;fillColor=#f8cecc;strokeColor=#b85450;" parent="1" vertex="1">
                    <mxGeometry x="1257.56" y="615.5" width="77.59" height="40" as="geometry"/>
                </mxCell>
                <mxCell id="157" value="Sigmoid" style="text;html=1;strokeColor=none;fillColor=none;align=center;verticalAlign=middle;whiteSpace=wrap;rounded=0;" parent="1" vertex="1">
                    <mxGeometry x="1324.77" y="675.5" width="60" height="30" as="geometry"/>
                </mxCell>
                <mxCell id="164" value="Embedding Layer" style="rounded=0;whiteSpace=wrap;html=1;strokeWidth=1;" parent="1" vertex="1">
                    <mxGeometry x="1179.97" y="1245.5" width="240" height="40" as="geometry"/>
                </mxCell>
                <mxCell id="165" value="categorical" style="rounded=0;whiteSpace=wrap;html=1;fillColor=#dae8fc;strokeColor=#6c8ebf;" parent="1" vertex="1">
                    <mxGeometry x="1242.5635294117646" y="1324.5" width="80.88235294117646" height="30" as="geometry"/>
                </mxCell>
                <mxCell id="169" value="categorical" style="rounded=0;whiteSpace=wrap;html=1;fillColor=#d5e8d4;strokeColor=#82b366;" parent="1" vertex="1">
                    <mxGeometry x="1267.0435294117647" y="1344.5" width="80.88235294117646" height="30" as="geometry"/>
                </mxCell>
                <mxCell id="148" value="categorical_embedding" style="rounded=0;whiteSpace=wrap;html=1;fillColor=#dae8fc;strokeColor=#6c8ebf;" parent="1" vertex="1">
                    <mxGeometry x="1181.56" y="1155.5" width="131.6530769230769" height="30" as="geometry"/>
                </mxCell>
                <mxCell id="149" value="numerical" style="rounded=0;whiteSpace=wrap;html=1;fillColor=#BCC8D9;strokeColor=#6c8ebf;" parent="1" vertex="1">
                    <mxGeometry x="1313.21" y="1155.5" width="78.35" height="30" as="geometry"/>
                </mxCell>
                <mxCell id="150" value="categorical_embedding" style="rounded=0;whiteSpace=wrap;html=1;fillColor=#d5e8d4;strokeColor=#82b366;" parent="1" vertex="1">
                    <mxGeometry x="1209.97" y="1175.5" width="131.6530769230769" height="30" as="geometry"/>
                </mxCell>
                <mxCell id="151" value="numerical" style="rounded=0;whiteSpace=wrap;html=1;fillColor=#C5D6C4;strokeColor=#82b366;" parent="1" vertex="1">
                    <mxGeometry x="1341.6200000000001" y="1175.5" width="78.35" height="30" as="geometry"/>
                </mxCell>
                <mxCell id="171" style="edgeStyle=none;html=1;exitX=0.5;exitY=0;exitDx=0;exitDy=0;entryX=0.205;entryY=1.017;entryDx=0;entryDy=0;entryPerimeter=0;" parent="1" edge="1">
                    <mxGeometry relative="1" as="geometry">
                        <mxPoint x="1279.7447058823532" y="1240.82" as="sourcePoint"/>
                        <mxPoint x="1279.56" y="1211.4999999999998" as="targetPoint"/>
                    </mxGeometry>
                </mxCell>
                <mxCell id="172" style="edgeStyle=none;html=1;exitX=0.5;exitY=0;exitDx=0;exitDy=0;entryX=0.205;entryY=1.017;entryDx=0;entryDy=0;entryPerimeter=0;" parent="1" edge="1">
                    <mxGeometry relative="1" as="geometry">
                        <mxPoint x="1295.2447058823532" y="1151.8199999999997" as="sourcePoint"/>
                        <mxPoint x="1295.06" y="1122.5" as="targetPoint"/>
                    </mxGeometry>
                </mxCell>
                <mxCell id="173" value="DNN" style="shape=trapezoid;perimeter=trapezoidPerimeter;whiteSpace=wrap;html=1;fixedSize=1;size=40;" parent="1" vertex="1">
                    <mxGeometry x="1060.2399999999998" y="905.5" width="190" height="60" as="geometry"/>
                </mxCell>
                <mxCell id="175" value="subject_logits (2048)" style="rounded=0;whiteSpace=wrap;html=1;fillColor=#dae8fc;strokeColor=#6c8ebf;" parent="1" vertex="1">
                    <mxGeometry x="1043.45" y="999.5" width="223.59" height="30" as="geometry"/>
                </mxCell>
                <mxCell id="178" style="edgeStyle=none;html=1;" parent="1" edge="1">
                    <mxGeometry relative="1" as="geometry">
                        <mxPoint x="1199.1399999999999" y="1049.5" as="sourcePoint"/>
                        <mxPoint x="1151.56" y="1035.5" as="targetPoint"/>
                    </mxGeometry>
                </mxCell>
                <mxCell id="179" style="edgeStyle=none;html=1;entryX=0.205;entryY=1.017;entryDx=0;entryDy=0;entryPerimeter=0;" parent="1" edge="1">
                    <mxGeometry relative="1" as="geometry">
                        <mxPoint x="1154.56" y="995.5" as="sourcePoint"/>
                        <mxPoint x="1154.7499999999998" y="971.5" as="targetPoint"/>
                    </mxGeometry>
                </mxCell>
                <mxCell id="186" value="DNN" style="shape=trapezoid;perimeter=trapezoidPerimeter;whiteSpace=wrap;html=1;fixedSize=1;size=40;" parent="1" vertex="1">
                    <mxGeometry x="1348.35" y="905.5" width="190" height="60" as="geometry"/>
                </mxCell>
                <mxCell id="187" value="object_logits&amp;nbsp;(2048)" style="rounded=0;whiteSpace=wrap;html=1;fillColor=#d5e8d4;strokeColor=#82b366;" parent="1" vertex="1">
                    <mxGeometry x="1331.56" y="999.5" width="223.59" height="30" as="geometry"/>
                </mxCell>
                <mxCell id="188" style="edgeStyle=none;html=1;" parent="1" edge="1">
                    <mxGeometry relative="1" as="geometry">
                        <mxPoint x="1391.56" y="1049.5" as="sourcePoint"/>
                        <mxPoint x="1439.67" y="1035.5" as="targetPoint"/>
                    </mxGeometry>
                </mxCell>
                <mxCell id="200" style="edgeStyle=none;html=1;exitX=1;exitY=0.25;exitDx=0;exitDy=0;entryX=0;entryY=1;entryDx=0;entryDy=0;" parent="1" source="190" target="196" edge="1">
                    <mxGeometry relative="1" as="geometry"/>
                </mxCell>
                <mxCell id="190" value="subject_logits (64)" style="rounded=0;whiteSpace=wrap;html=1;fillColor=#dae8fc;strokeColor=#6c8ebf;" parent="1" vertex="1">
                    <mxGeometry x="1100.59" y="835.5" width="110" height="30" as="geometry"/>
                </mxCell>
                <mxCell id="191" style="edgeStyle=none;html=1;entryX=0.205;entryY=1.017;entryDx=0;entryDy=0;entryPerimeter=0;" parent="1" edge="1">
                    <mxGeometry relative="1" as="geometry">
                        <mxPoint x="1442.56" y="994.5" as="sourcePoint"/>
                        <mxPoint x="1442.7499999999998" y="970.5" as="targetPoint"/>
                    </mxGeometry>
                </mxCell>
                <mxCell id="193" style="edgeStyle=none;html=1;entryX=0.205;entryY=1.017;entryDx=0;entryDy=0;entryPerimeter=0;" parent="1" edge="1">
                    <mxGeometry relative="1" as="geometry">
                        <mxPoint x="1155.09" y="899.5" as="sourcePoint"/>
                        <mxPoint x="1155.2799999999997" y="875.5" as="targetPoint"/>
                    </mxGeometry>
                </mxCell>
                <mxCell id="201" style="edgeStyle=none;html=1;exitX=0;exitY=0.25;exitDx=0;exitDy=0;entryX=1;entryY=1;entryDx=0;entryDy=0;" parent="1" source="194" target="196" edge="1">
                    <mxGeometry relative="1" as="geometry"/>
                </mxCell>
                <mxCell id="194" value="object_logits (64)" style="rounded=0;whiteSpace=wrap;html=1;fillColor=#d5e8d4;strokeColor=#82b366;" parent="1" vertex="1">
                    <mxGeometry x="1388.36" y="833.5" width="110" height="30" as="geometry"/>
                </mxCell>
                <mxCell id="195" style="edgeStyle=none;html=1;entryX=0.205;entryY=1.017;entryDx=0;entryDy=0;entryPerimeter=0;" parent="1" edge="1">
                    <mxGeometry relative="1" as="geometry">
                        <mxPoint x="1442.86" y="897.5" as="sourcePoint"/>
                        <mxPoint x="1443.0499999999997" y="873.5" as="targetPoint"/>
                    </mxGeometry>
                </mxCell>
                <mxCell id="198" value="" style="group" parent="1" vertex="1" connectable="0">
                    <mxGeometry x="1281.56" y="785.5" width="30" height="30" as="geometry"/>
                </mxCell>
                <mxCell id="196" value="" style="ellipse;whiteSpace=wrap;html=1;aspect=fixed;strokeWidth=1;" parent="198" vertex="1">
                    <mxGeometry width="30" height="30" as="geometry"/>
                </mxCell>
                <mxCell id="197" value="" style="ellipse;whiteSpace=wrap;html=1;aspect=fixed;strokeWidth=1;fillColor=#000000;" parent="198" vertex="1">
                    <mxGeometry x="13.125" y="13.125" width="3.75" height="3.75" as="geometry"/>
                </mxCell>
                <mxCell id="202" value="Inner Product" style="text;html=1;strokeColor=none;fillColor=none;align=center;verticalAlign=middle;whiteSpace=wrap;rounded=0;" parent="1" vertex="1">
                    <mxGeometry x="1323.45" y="775.5" width="60" height="30" as="geometry"/>
                </mxCell>
                <mxCell id="203" value="&lt;span&gt;similarity&lt;/span&gt;" style="strokeWidth=1;html=1;shape=mxgraph.flowchart.terminator;whiteSpace=wrap;fillColor=#ffe6cc;strokeColor=#d79b00;" parent="1" vertex="1">
                    <mxGeometry x="1257.56" y="725.5" width="77.59" height="40" as="geometry"/>
                </mxCell>
                <mxCell id="204" style="edgeStyle=none;html=1;exitX=0.5;exitY=0;exitDx=0;exitDy=0;entryX=0.5;entryY=1;entryDx=0;entryDy=0;entryPerimeter=0;" parent="1" source="196" target="203" edge="1">
                    <mxGeometry relative="1" as="geometry"/>
                </mxCell>
                <mxCell id="207" style="edgeStyle=none;html=1;exitX=0.5;exitY=0;exitDx=0;exitDy=0;entryX=0.5;entryY=1;entryDx=0;entryDy=0;entryPerimeter=0;exitPerimeter=0;" parent="1" source="228" target="209" edge="1">
                    <mxGeometry relative="1" as="geometry">
                        <mxPoint x="2092.91" y="740" as="sourcePoint"/>
                    </mxGeometry>
                </mxCell>
                <mxCell id="208" style="edgeStyle=none;html=1;exitX=0.5;exitY=0;exitDx=0;exitDy=0;exitPerimeter=0;" parent="1" source="209" edge="1">
                    <mxGeometry relative="1" as="geometry">
                        <mxPoint x="2092.91" y="673" as="targetPoint"/>
                    </mxGeometry>
                </mxCell>
                <mxCell id="209" value="" style="pointerEvents=1;verticalLabelPosition=bottom;shadow=0;dashed=0;align=center;html=1;verticalAlign=top;shape=mxgraph.electrical.signal_sources.source;aspect=fixed;points=[[0.5,0,0],[1,0.5,0],[0.5,1,0],[0,0.5,0]];elSignalType=ac;" parent="1" vertex="1">
                    <mxGeometry x="2077.91" y="693" width="30" height="30" as="geometry"/>
                </mxCell>
                <mxCell id="210" value="&lt;span&gt;probs&lt;/span&gt;" style="strokeWidth=1;html=1;shape=mxgraph.flowchart.terminator;whiteSpace=wrap;fillColor=#f8cecc;strokeColor=#b85450;" parent="1" vertex="1">
                    <mxGeometry x="2054.1099999999997" y="633" width="77.59" height="40" as="geometry"/>
                </mxCell>
                <mxCell id="211" value="Sigmoid" style="text;html=1;strokeColor=none;fillColor=none;align=center;verticalAlign=middle;whiteSpace=wrap;rounded=0;" parent="1" vertex="1">
                    <mxGeometry x="2121.3199999999997" y="693" width="60" height="30" as="geometry"/>
                </mxCell>
                <mxCell id="212" value="DNN" style="shape=trapezoid;perimeter=trapezoidPerimeter;whiteSpace=wrap;html=1;fixedSize=1;size=40;" parent="1" vertex="1">
                    <mxGeometry x="1856.7899999999997" y="923" width="190" height="60" as="geometry"/>
                </mxCell>
                <mxCell id="213" value="User" style="rounded=0;whiteSpace=wrap;html=1;fillColor=#dae8fc;strokeColor=#6c8ebf;" parent="1" vertex="1">
                    <mxGeometry x="1866.79" y="1092.75" width="180" height="33" as="geometry"/>
                </mxCell>
                <mxCell id="214" style="edgeStyle=none;html=1;entryX=0.205;entryY=1.017;entryDx=0;entryDy=0;entryPerimeter=0;" parent="1" edge="1">
                    <mxGeometry relative="1" as="geometry">
                        <mxPoint x="1956.08" y="1084.25" as="sourcePoint"/>
                        <mxPoint x="1956.27" y="1060.2500000000002" as="targetPoint"/>
                    </mxGeometry>
                </mxCell>
                <mxCell id="215" value="DNN" style="shape=trapezoid;perimeter=trapezoidPerimeter;whiteSpace=wrap;html=1;fixedSize=1;size=40;" parent="1" vertex="1">
                    <mxGeometry x="2144.8999999999996" y="923" width="190" height="60" as="geometry"/>
                </mxCell>
                <mxCell id="217" style="edgeStyle=none;html=1;exitX=1;exitY=0.25;exitDx=0;exitDy=0;entryX=0;entryY=1;entryDx=0;entryDy=0;" parent="1" source="218" target="225" edge="1">
                    <mxGeometry relative="1" as="geometry"/>
                </mxCell>
                <mxCell id="218" value="User_embedding" style="rounded=0;whiteSpace=wrap;html=1;fillColor=#dae8fc;strokeColor=#6c8ebf;" parent="1" vertex="1">
                    <mxGeometry x="1897.1399999999999" y="853" width="110" height="30" as="geometry"/>
                </mxCell>
                <mxCell id="220" style="edgeStyle=none;html=1;entryX=0.205;entryY=1.017;entryDx=0;entryDy=0;entryPerimeter=0;" parent="1" edge="1">
                    <mxGeometry relative="1" as="geometry">
                        <mxPoint x="1951.64" y="917" as="sourcePoint"/>
                        <mxPoint x="1951.8299999999997" y="893" as="targetPoint"/>
                    </mxGeometry>
                </mxCell>
                <mxCell id="221" style="edgeStyle=none;html=1;exitX=0;exitY=0.25;exitDx=0;exitDy=0;entryX=1;entryY=1;entryDx=0;entryDy=0;" parent="1" source="222" target="225" edge="1">
                    <mxGeometry relative="1" as="geometry"/>
                </mxCell>
                <mxCell id="222" value="Item_embedding" style="rounded=0;whiteSpace=wrap;html=1;fillColor=#d5e8d4;strokeColor=#82b366;" parent="1" vertex="1">
                    <mxGeometry x="2184.91" y="851" width="110" height="30" as="geometry"/>
                </mxCell>
                <mxCell id="223" style="edgeStyle=none;html=1;entryX=0.205;entryY=1.017;entryDx=0;entryDy=0;entryPerimeter=0;" parent="1" edge="1">
                    <mxGeometry relative="1" as="geometry">
                        <mxPoint x="2239.41" y="914.9999999999998" as="sourcePoint"/>
                        <mxPoint x="2239.5999999999995" y="891" as="targetPoint"/>
                    </mxGeometry>
                </mxCell>
                <mxCell id="224" value="" style="group" parent="1" vertex="1" connectable="0">
                    <mxGeometry x="2078.1099999999997" y="803" width="30" height="30" as="geometry"/>
                </mxCell>
                <mxCell id="225" value="" style="ellipse;whiteSpace=wrap;html=1;aspect=fixed;strokeWidth=1;" parent="224" vertex="1">
                    <mxGeometry width="30" height="30" as="geometry"/>
                </mxCell>
                <mxCell id="226" value="" style="ellipse;whiteSpace=wrap;html=1;aspect=fixed;strokeWidth=1;fillColor=#000000;" parent="224" vertex="1">
                    <mxGeometry x="13.125" y="13.125" width="3.75" height="3.75" as="geometry"/>
                </mxCell>
                <mxCell id="227" value="Cos Similarity" style="text;html=1;strokeColor=none;fillColor=none;align=center;verticalAlign=middle;whiteSpace=wrap;rounded=0;" parent="1" vertex="1">
                    <mxGeometry x="2120" y="793" width="60" height="30" as="geometry"/>
                </mxCell>
                <mxCell id="228" value="&lt;span&gt;similarity&lt;/span&gt;" style="strokeWidth=1;html=1;shape=mxgraph.flowchart.terminator;whiteSpace=wrap;fillColor=#ffe6cc;strokeColor=#d79b00;" parent="1" vertex="1">
                    <mxGeometry x="2054.1099999999997" y="743" width="77.59" height="40" as="geometry"/>
                </mxCell>
                <mxCell id="229" style="edgeStyle=none;html=1;exitX=0.5;exitY=0;exitDx=0;exitDy=0;entryX=0.5;entryY=1;entryDx=0;entryDy=0;entryPerimeter=0;" parent="1" source="225" target="228" edge="1">
                    <mxGeometry relative="1" as="geometry"/>
                </mxCell>
                <mxCell id="230" value="Embedding Layer" style="rounded=0;whiteSpace=wrap;html=1;strokeWidth=1;" parent="1" vertex="1">
                    <mxGeometry x="1856.79" y="1019.5" width="190" height="36" as="geometry"/>
                </mxCell>
                <mxCell id="231" style="edgeStyle=none;html=1;exitX=0.5;exitY=0;exitDx=0;exitDy=0;entryX=0.205;entryY=1.017;entryDx=0;entryDy=0;entryPerimeter=0;" parent="1" edge="1">
                    <mxGeometry relative="1" as="geometry">
                        <mxPoint x="1956.5647058823533" y="1014.8199999999997" as="sourcePoint"/>
                        <mxPoint x="1956.3799999999997" y="985.5" as="targetPoint"/>
                    </mxGeometry>
                </mxCell>
                <mxCell id="240" value="Item" style="rounded=0;whiteSpace=wrap;html=1;fillColor=#d5e8d4;strokeColor=#82b366;" parent="1" vertex="1">
                    <mxGeometry x="2154.9" y="1092.75" width="180" height="33" as="geometry"/>
                </mxCell>
                <mxCell id="241" style="edgeStyle=none;html=1;entryX=0.205;entryY=1.017;entryDx=0;entryDy=0;entryPerimeter=0;" parent="1" edge="1">
                    <mxGeometry relative="1" as="geometry">
                        <mxPoint x="2244.1899999999996" y="1084.25" as="sourcePoint"/>
                        <mxPoint x="2244.38" y="1060.2500000000002" as="targetPoint"/>
                    </mxGeometry>
                </mxCell>
                <mxCell id="242" value="Embedding Layer" style="rounded=0;whiteSpace=wrap;html=1;strokeWidth=1;" parent="1" vertex="1">
                    <mxGeometry x="2144.9" y="1019.5" width="190" height="36" as="geometry"/>
                </mxCell>
                <mxCell id="243" style="edgeStyle=none;html=1;exitX=0.5;exitY=0;exitDx=0;exitDy=0;entryX=0.205;entryY=1.017;entryDx=0;entryDy=0;entryPerimeter=0;" parent="1" edge="1">
                    <mxGeometry relative="1" as="geometry">
                        <mxPoint x="2244.6747058823535" y="1014.8199999999995" as="sourcePoint"/>
                        <mxPoint x="2244.49" y="985.5" as="targetPoint"/>
                    </mxGeometry>
                </mxCell>
                <mxCell id="272" style="edgeStyle=none;html=1;exitX=1;exitY=0.5;exitDx=0;exitDy=0;entryX=0;entryY=0.297;entryDx=0;entryDy=0;entryPerimeter=0;endArrow=classic;endFill=1;" parent="1" source="244" target="271" edge="1">
                    <mxGeometry relative="1" as="geometry"/>
                </mxCell>
                <mxCell id="244" value="User" style="rounded=0;whiteSpace=wrap;html=1;fillColor=#fff2cc;strokeColor=#d6b656;" parent="1" vertex="1">
                    <mxGeometry x="1010" y="130" width="180" height="33" as="geometry"/>
                </mxCell>
                <mxCell id="273" style="edgeStyle=none;html=1;exitX=1;exitY=0.5;exitDx=0;exitDy=0;entryX=0;entryY=0.605;entryDx=0;entryDy=0;entryPerimeter=0;endArrow=classic;endFill=1;" parent="1" source="245" target="271" edge="1">
                    <mxGeometry relative="1" as="geometry"/>
                </mxCell>
                <mxCell id="245" value="Candidate User Pool" style="rounded=0;whiteSpace=wrap;html=1;fillColor=#e1d5e7;strokeColor=#9673a6;" parent="1" vertex="1">
                    <mxGeometry x="1010" y="210" width="180" height="220" as="geometry"/>
                </mxCell>
                <mxCell id="262" style="edgeStyle=none;html=1;exitX=1;exitY=1;exitDx=0;exitDy=0;entryX=0;entryY=0.25;entryDx=0;entryDy=0;endArrow=classic;endFill=1;" parent="1" source="246" target="251" edge="1">
                    <mxGeometry relative="1" as="geometry"/>
                </mxCell>
                <mxCell id="246" value="User" style="rounded=0;whiteSpace=wrap;html=1;fillColor=#dae8fc;strokeColor=#6c8ebf;" parent="1" vertex="1">
                    <mxGeometry x="1275.4099999999999" y="192" width="180" height="33" as="geometry"/>
                </mxCell>
                <mxCell id="247" value="Candidate User 1" style="rounded=0;whiteSpace=wrap;html=1;fillColor=#d5e8d4;strokeColor=#82b366;" parent="1" vertex="1">
                    <mxGeometry x="1275.4099999999999" y="225" width="180" height="33" as="geometry"/>
                </mxCell>
                <mxCell id="249" value="Candidate User 1" style="rounded=0;whiteSpace=wrap;html=1;fillColor=#dae8fc;strokeColor=#6c8ebf;" parent="1" vertex="1">
                    <mxGeometry x="1275.4099999999999" y="282" width="180" height="33" as="geometry"/>
                </mxCell>
                <mxCell id="263" style="edgeStyle=none;html=1;exitX=1;exitY=0;exitDx=0;exitDy=0;entryX=0;entryY=0.75;entryDx=0;entryDy=0;endArrow=classic;endFill=1;" parent="1" source="250" target="251" edge="1">
                    <mxGeometry relative="1" as="geometry"/>
                </mxCell>
                <mxCell id="250" value="User" style="rounded=0;whiteSpace=wrap;html=1;fillColor=#d5e8d4;strokeColor=#82b366;" parent="1" vertex="1">
                    <mxGeometry x="1275.4099999999999" y="315" width="180" height="33" as="geometry"/>
                </mxCell>
                <mxCell id="261" style="edgeStyle=none;html=1;entryX=0;entryY=0.75;entryDx=0;entryDy=0;endArrow=classic;endFill=1;" parent="1" source="251" target="257" edge="1">
                    <mxGeometry relative="1" as="geometry"/>
                </mxCell>
                <mxCell id="264" style="edgeStyle=none;html=1;exitX=1;exitY=0.75;exitDx=0;exitDy=0;entryX=0;entryY=0.5;entryDx=0;entryDy=0;endArrow=classic;endFill=1;" parent="1" source="251" target="259" edge="1">
                    <mxGeometry relative="1" as="geometry"/>
                </mxCell>
                <mxCell id="251" value="Model" style="rounded=0;whiteSpace=wrap;html=1;" parent="1" vertex="1">
                    <mxGeometry x="1493.02" y="230" width="106.98" height="80" as="geometry"/>
                </mxCell>
                <mxCell id="267" style="edgeStyle=none;html=1;exitX=1;exitY=0.5;exitDx=0;exitDy=0;entryX=0;entryY=0;entryDx=0;entryDy=0;endArrow=classic;endFill=1;" parent="1" source="257" target="265" edge="1">
                    <mxGeometry relative="1" as="geometry"/>
                </mxCell>
                <mxCell id="257" value="&lt;span&gt;probability of liking candidate user&lt;/span&gt;" style="rounded=1;whiteSpace=wrap;html=1;fillColor=#f8cecc;strokeColor=#b85450;" parent="1" vertex="1">
                    <mxGeometry x="1626.22" y="205.5" width="270" height="39" as="geometry"/>
                </mxCell>
                <mxCell id="268" style="edgeStyle=none;html=1;exitX=1;exitY=0.5;exitDx=0;exitDy=0;entryX=0;entryY=1;entryDx=0;entryDy=0;endArrow=classic;endFill=1;" parent="1" source="259" target="265" edge="1">
                    <mxGeometry relative="1" as="geometry"/>
                </mxCell>
                <mxCell id="259" value="&lt;span&gt;probability of being liked by candidate user&lt;/span&gt;" style="rounded=1;whiteSpace=wrap;html=1;fillColor=#f8cecc;strokeColor=#b85450;" parent="1" vertex="1">
                    <mxGeometry x="1626.22" y="294.5" width="270" height="40" as="geometry"/>
                </mxCell>
                <mxCell id="270" style="edgeStyle=none;html=1;exitX=1;exitY=0.5;exitDx=0;exitDy=0;entryX=0;entryY=0.5;entryDx=0;entryDy=0;endArrow=classic;endFill=1;" parent="1" source="265" target="269" edge="1">
                    <mxGeometry relative="1" as="geometry"/>
                </mxCell>
                <mxCell id="265" value="X" style="ellipse;whiteSpace=wrap;html=1;aspect=fixed;" parent="1" vertex="1">
                    <mxGeometry x="1943.01" y="254.5" width="40" height="40" as="geometry"/>
                </mxCell>
                <mxCell id="269" value="match score" style="rounded=1;whiteSpace=wrap;html=1;fillColor=#f8cecc;strokeColor=#b85450;" parent="1" vertex="1">
                    <mxGeometry x="2006.22" y="254.5" width="101.89" height="38" as="geometry"/>
                </mxCell>
                <mxCell id="275" value="0.98 Candidate User 192" style="rounded=0;whiteSpace=wrap;html=1;fillColor=#ffe6cc;strokeColor=#d79b00;" parent="1" vertex="1">
                    <mxGeometry x="2210" y="171.5" width="180" height="33" as="geometry"/>
                </mxCell>
                <mxCell id="276" value="0.95 Candidate User 135" style="rounded=0;whiteSpace=wrap;html=1;fillColor=#ffe6cc;strokeColor=#d79b00;" parent="1" vertex="1">
                    <mxGeometry x="2210" y="205" width="180" height="33" as="geometry"/>
                </mxCell>
                <mxCell id="277" value="0.87 Candidate User 097" style="rounded=0;whiteSpace=wrap;html=1;fillColor=#ffe6cc;strokeColor=#d79b00;" parent="1" vertex="1">
                    <mxGeometry x="2210" y="239.5" width="180" height="33" as="geometry"/>
                </mxCell>
                <mxCell id="278" value="0.79 Candidate User 003" style="rounded=0;whiteSpace=wrap;html=1;fillColor=#f5f5f5;strokeColor=#666666;fontColor=#333333;" parent="1" vertex="1">
                    <mxGeometry x="2210" y="272.5" width="180" height="33" as="geometry"/>
                </mxCell>
                <mxCell id="279" value="0.69 Candidate User 513" style="rounded=0;whiteSpace=wrap;html=1;fillColor=#f5f5f5;strokeColor=#666666;fontColor=#333333;" parent="1" vertex="1">
                    <mxGeometry x="2210" y="305.5" width="180" height="33" as="geometry"/>
                </mxCell>
                <mxCell id="281" value="" style="endArrow=none;dashed=1;html=1;dashPattern=1 3;strokeWidth=2;" parent="1" edge="1">
                    <mxGeometry width="50" height="50" relative="1" as="geometry">
                        <mxPoint x="2299.29" y="410" as="sourcePoint"/>
                        <mxPoint x="2299.29" y="348" as="targetPoint"/>
                    </mxGeometry>
                </mxCell>
                <mxCell id="283" value="" style="endArrow=classic;html=1;" parent="1" edge="1">
                    <mxGeometry width="50" height="50" relative="1" as="geometry">
                        <mxPoint x="2144.9" y="272.5" as="sourcePoint"/>
                        <mxPoint x="2194.9" y="272.93" as="targetPoint"/>
                    </mxGeometry>
                </mxCell>
                <mxCell id="284" value="" style="strokeWidth=2;html=1;shape=mxgraph.flowchart.annotation_2;align=left;labelPosition=right;pointerEvents=1;rotation=-180;" parent="1" vertex="1">
                    <mxGeometry x="2410" y="172.5" width="50" height="100" as="geometry"/>
                </mxCell>
                <mxCell id="285" value="Recommadation" style="text;html=1;strokeColor=none;fillColor=none;align=center;verticalAlign=middle;whiteSpace=wrap;rounded=0;" parent="1" vertex="1">
                    <mxGeometry x="2490" y="210" width="60" height="30" as="geometry"/>
                </mxCell>
            </root>
        </mxGraphModel>
    </diagram>
</mxfile>